<svg width="44" height="39" viewBox="0 0 44 39" fill="none" xmlns="http://www.w3.org/2000/svg">
<path d="M26.9334 9H14.808C13.2572 9 12 10.1143 12 11.4889V29.3638C12 30.7384 13.2572 31.8527 14.808 31.8527H26.9334C28.4842 31.8527 29.7414 30.7384 29.7414 29.3638V11.4889C29.7414 10.1143 28.4842 9 26.9334 9Z" fill="#E79C88" fill-opacity="0.8"/>
<path d="M36.0479 3.70752H23.9225C22.3717 3.70752 21.1145 4.82187 21.1145 6.19644V24.0713C21.1145 25.4459 22.3717 26.5602 23.9225 26.5602H36.0479C37.5987 26.5602 38.8559 25.4459 38.8559 24.0713V6.19644C38.8559 4.82187 37.5987 3.70752 36.0479 3.70752Z" fill="#5881EA" fill-opacity="0.8"/>
</svg>
