<svg width="254" height="245" viewBox="0 0 254 245" fill="none" xmlns="http://www.w3.org/2000/svg">
<g clip-path="url(#clip0)">
<path d="M126.97 218.132C189.362 183.522 253.939 212.297 253.939 171.955C253.939 131.614 197.093 98.9108 126.97 98.9108C56.8462 98.9108 0 131.614 0 171.955C0 212.297 66.4588 266.403 126.97 218.132Z" fill="#D3E3CC"/>
<path opacity="0.1" d="M78.1383 154.468C76.1878 155.622 74.0543 156.958 73.3229 159.144C72.8962 160.48 73.0181 161.937 73.5057 163.212C75.5782 169.102 82.8928 171.652 85.392 177.359C86.733 180.395 86.4892 183.796 86.6111 187.074C86.733 190.353 87.5254 193.936 90.1465 196C91.3656 196.972 92.9504 197.457 94.4743 197.761C100.021 198.975 105.995 198.307 111.176 195.879C119.405 192.053 125.074 184.281 132.449 178.938C136.655 175.902 141.41 173.595 146.408 172.259C150.858 171.045 155.429 170.62 160.001 170.498C162.439 170.437 165.304 170.195 166.523 168.13C168.291 165.216 165.304 161.815 162.683 159.69C165.06 158.415 167.925 158.84 170.607 158.901C173.289 159.022 176.398 158.537 177.922 156.351C179.202 154.468 178.897 151.858 177.678 149.915C176.459 147.972 174.569 146.636 172.619 145.482C157.197 136.192 138.24 135.463 120.258 136.192C115.93 136.374 111.603 136.617 107.458 137.892C96.5468 141.353 87.8911 148.7 78.1383 154.468Z" fill="black"/>
<path d="M39.9257 4.7968L34.5616 7.89346C34.5616 7.65058 34.6226 7.34699 34.6226 7.10411V5.28255C34.6226 2.12518 32.672 0.66793 30.2947 2.00374C29.3195 2.55021 28.4661 3.52171 27.7346 4.61465C27.3079 0.607212 24.6259 -1.15363 21.3343 0.789368C17.738 2.8538 14.8731 8.37921 14.8731 13.1153V15.7869C14.8731 17.0013 15.056 18.0942 15.4217 18.9443L10.972 21.4337C9.63096 22.2231 8.59473 24.2268 8.59473 25.9876C8.59473 27.7485 9.69192 28.5378 10.972 27.8092L39.9257 11.1723C41.2667 10.3829 42.3029 8.37921 42.3029 6.61836C42.3029 4.7968 41.2667 4.00746 39.9257 4.7968Z" fill="#E2F1F4"/>
<path d="M74.2434 14.0867L70.2203 16.3941C70.2203 16.2119 70.2813 15.969 70.2813 15.7869V14.4511C70.2813 12.083 68.8184 10.9294 66.9897 12.0223C66.2582 12.4473 65.5877 13.176 65.0391 14.026C64.7344 10.9901 62.6619 9.715 60.2237 11.1115C57.5417 12.6902 55.3473 16.8191 55.3473 20.4015V22.4052C55.3473 23.316 55.4692 24.1053 55.774 24.7732L52.4214 26.6555C51.4461 27.202 50.5928 28.7807 50.5928 30.1165C50.5928 31.4523 51.3852 32.0595 52.4214 31.4523L74.3043 18.8835C75.2796 18.3371 76.133 16.7584 76.133 15.4226C76.072 14.0867 75.2796 13.4796 74.2434 14.0867Z" fill="#E2F1F4"/>
<path d="M223.7 24.3439C225.48 13.4204 218.033 3.128 207.067 1.35519C196.101 -0.417616 185.769 7.00047 183.989 17.9239C182.209 28.8474 189.656 39.1398 200.622 40.9126C211.588 42.6854 221.921 35.2673 223.7 24.3439Z" fill="#F7E6C2"/>
<path d="M32.123 131.82L36.4509 129.331C36.4509 129.331 39.0719 118.584 38.0357 108.929C36.5728 95.3284 27.6124 90.228 24.1989 91.3816C20.7854 92.5353 19.8101 96.482 25.418 104.558C28.7705 109.354 32.8545 119.312 32.123 131.82Z" fill="#A1D6CC"/>
<path opacity="0.25" d="M32.123 131.82L36.4509 129.331C36.4509 129.331 39.0719 118.584 38.0357 108.929C36.5728 95.3284 27.6124 90.228 24.1989 91.3816C20.7854 92.5353 19.8101 96.482 25.418 104.558C28.7705 109.354 32.8545 119.312 32.123 131.82Z" fill="black"/>
<path d="M33.9519 126.538C33.9519 126.538 33.8909 126.538 33.9519 126.538C33.769 126.477 33.6471 126.356 33.6471 126.173C36.0244 113.665 31.6356 99.5786 26.2106 93.7496C26.0887 93.6282 26.0887 93.446 26.2106 93.3246C26.3325 93.2032 26.5153 93.2032 26.6373 93.3246C32.1842 99.275 36.6339 113.605 34.1957 126.295C34.1957 126.416 34.0738 126.538 33.9519 126.538Z" fill="white"/>
<path d="M20.7246 138.378C20.0541 138.742 18.2255 137.164 17.6769 136.799C16.8235 136.131 16.092 135.281 15.6653 134.249C15.1777 133.095 15.0558 131.881 15.2996 130.667C15.4215 129.999 15.6653 129.392 15.8482 128.784C16.0311 128.177 16.2749 127.57 16.4578 126.963C16.6406 126.356 16.8844 125.748 16.8235 125.141C16.7016 123.866 15.6653 122.955 14.6901 122.105C13.5929 121.195 12.4957 120.041 12.5566 118.523C12.6176 117.369 13.2881 116.276 14.0805 115.426C14.8729 114.515 15.7872 113.787 16.4578 112.815C16.9454 112.147 17.3721 111.358 17.3721 110.508C17.3721 109.962 17.1283 109.476 16.9454 108.99C16.4578 107.958 15.7872 107.047 15.4825 105.954C15.1777 104.861 15.2996 103.525 16.153 102.857C16.8844 102.25 17.8597 102.25 18.835 102.311C19.6884 102.432 20.4808 102.857 21.2123 103.283C23.5895 104.74 24.8086 107.654 27.3078 108.808C28.283 109.233 29.3802 109.415 30.3555 109.719C31.3918 110.022 32.428 110.629 32.8547 111.601C33.7081 113.544 31.8184 115.73 32.367 117.794C32.8547 119.616 34.5614 120.344 35.4148 121.984C35.7805 122.712 35.8415 123.502 35.7196 124.291C35.5367 125.627 35.2929 126.659 34.5614 128.116C33.9519 129.331 32.2451 131.699 32.2451 131.699C32.2451 131.699 20.8465 138.317 20.7246 138.378Z" fill="#A1D6CC"/>
<path opacity="0.1" d="M20.7246 138.378C20.0541 138.742 18.2255 137.164 17.6769 136.799C16.8235 136.131 16.092 135.281 15.6653 134.249C15.1777 133.095 15.0558 131.881 15.2996 130.667C15.4215 129.999 15.6653 129.392 15.8482 128.784C16.0311 128.177 16.2749 127.57 16.4578 126.963C16.6406 126.356 16.8844 125.748 16.8235 125.141C16.7016 123.866 15.6653 122.955 14.6901 122.105C13.5929 121.195 12.4957 120.041 12.5566 118.523C12.6176 117.369 13.2881 116.276 14.0805 115.426C14.8729 114.515 15.7872 113.787 16.4578 112.815C16.9454 112.147 17.3721 111.358 17.3721 110.508C17.3721 109.962 17.1283 109.476 16.9454 108.99C16.4578 107.958 15.7872 107.047 15.4825 105.954C15.1777 104.861 15.2996 103.525 16.153 102.857C16.8844 102.25 17.8597 102.25 18.835 102.311C19.6884 102.432 20.4808 102.857 21.2123 103.283C23.5895 104.74 24.8086 107.654 27.3078 108.808C28.283 109.233 29.3802 109.415 30.3555 109.719C31.3918 110.022 32.428 110.629 32.8547 111.601C33.7081 113.544 31.8184 115.73 32.367 117.794C32.8547 119.616 34.5614 120.344 35.4148 121.984C35.7805 122.712 35.8415 123.502 35.7196 124.291C35.5367 125.627 35.2929 126.659 34.5614 128.116C33.9519 129.331 32.2451 131.699 32.2451 131.699C32.2451 131.699 20.8465 138.317 20.7246 138.378Z" fill="black"/>
<path d="M27.3689 134.917C27.186 134.917 27.0641 134.735 27.0641 134.613C28.1613 122.713 23.163 109.233 19.2618 105.226C19.1399 105.104 19.1399 104.922 19.2618 104.8C19.3838 104.679 19.5666 104.679 19.6885 104.8C23.6506 108.929 28.7708 122.591 27.6127 134.674C27.6737 134.796 27.5517 134.917 27.3689 134.917Z" fill="white"/>
<path d="M26.2107 120.223H26.1498C22.3705 118.827 17.5551 118.402 17.5551 118.402C17.3722 118.402 17.2503 118.219 17.3113 118.098C17.3113 117.916 17.4332 117.794 17.616 117.855C17.677 117.855 22.5534 118.341 26.3936 119.737C26.5764 119.798 26.6374 119.98 26.5764 120.102C26.4545 120.162 26.3326 120.223 26.2107 120.223Z" fill="white"/>
<path d="M226.509 133.581L221.023 130.424C221.023 130.424 219.682 118.766 220.596 109.779C221.877 97.0892 230.045 81.8488 239.858 85.4312C249.672 89.0136 235.348 101.886 232.178 112.633C229.008 123.38 226.509 133.581 226.509 133.581Z" fill="#A1D6CC"/>
<path opacity="0.2" d="M226.509 133.581L221.023 130.424C221.023 130.424 219.682 118.766 220.596 109.779C221.877 97.0892 230.045 81.8488 239.858 85.4312C249.672 89.0136 235.348 101.886 232.178 112.633C229.008 123.38 226.509 133.581 226.509 133.581Z" fill="black"/>
<path d="M223.644 132.245C223.827 132.245 224.01 132.063 223.949 131.881C222.974 103.708 237.054 89.5601 237.176 89.4386C237.298 89.3172 237.298 89.0743 237.176 88.9529C237.054 88.8315 236.81 88.8315 236.689 88.9529C236.567 89.0743 222.303 103.465 223.217 131.881C223.278 132.124 223.461 132.245 223.644 132.245Z" fill="white"/>
<path d="M229.923 135.524L226.021 133.278C226.021 133.278 225.351 125.263 229.313 115.608C232.726 107.169 241.199 100.125 245.527 101.643C249.794 103.1 249.672 106.136 247.6 109.294C245.527 112.451 232.848 119.98 229.923 135.524Z" fill="#A1D6CC"/>
<path opacity="0.1" d="M229.923 135.524L226.021 133.278C226.021 133.278 225.351 125.263 229.313 115.608C232.726 107.169 241.199 100.125 245.527 101.643C249.794 103.1 249.672 106.136 247.6 109.294C245.527 112.451 232.848 119.98 229.923 135.524Z" fill="#A1D6CC"/>
<path d="M227.85 134.674C228.033 134.674 228.155 134.553 228.155 134.37C228.094 116.58 244.856 104.558 245.039 104.436C245.161 104.315 245.222 104.133 245.1 103.95C244.978 103.829 244.795 103.768 244.612 103.89C244.43 104.011 227.362 116.216 227.484 134.37C227.545 134.492 227.667 134.674 227.85 134.674Z" fill="white"/>
<path d="M59.9191 170.62C59.9191 170.62 59.5533 159.447 61.0162 156.108C62.4792 152.768 65.1002 150.643 65.1002 150.643C65.1002 150.643 62.2354 154.833 62.0525 158.901C61.8696 162.908 62.4792 170.68 62.4792 170.68C62.4792 170.68 60.8943 171.834 59.9191 170.62Z" fill="#91C1B8"/>
<path opacity="0.1" d="M59.9191 170.62C59.9191 170.62 59.5533 159.447 61.0162 156.108C62.4792 152.768 65.1002 150.643 65.1002 150.643C65.1002 150.643 62.2354 154.833 62.0525 158.901C61.8696 162.908 62.4792 170.68 62.4792 170.68C62.4792 170.68 60.8943 171.834 59.9191 170.62Z" fill="#91C1B8"/>
<path d="M59.5529 173.352C59.5529 173.352 60.1624 173.413 60.711 172.441C60.772 172.077 59.9796 160.905 56.5661 156.776C53.1526 152.647 46.6304 151.615 46.6304 151.615C46.6304 151.615 53.2135 153.983 55.8956 159.447C58.029 163.758 58.3947 172.805 58.3947 172.805L59.5529 173.352Z" fill="#91C1B8"/>
<path opacity="0.15" d="M59.5529 173.352C59.5529 173.352 60.1624 173.413 60.711 172.441C60.772 172.077 59.9796 160.905 56.5661 156.776C53.1526 152.647 46.6304 151.615 46.6304 151.615C46.6304 151.615 53.2135 153.983 55.8956 159.447C58.029 163.758 58.3947 172.805 58.3947 172.805L59.5529 173.352Z" fill="#91C1B8"/>
<path d="M57.5415 172.866C57.5415 172.866 53.2746 160.601 44.1313 158.415C44.1313 158.415 49.3125 158.233 52.9699 161.755C56.6272 165.276 59.1873 170.741 59.614 173.352C59.553 173.352 58.273 174.748 57.5415 172.866Z" fill="#91C1B8"/>
<path opacity="0.1" d="M57.5415 172.866C57.5415 172.866 53.2746 160.601 44.1313 158.415C44.1313 158.415 49.3125 158.233 52.9699 161.755C56.6272 165.276 59.1873 170.741 59.614 173.352C59.553 173.352 58.273 174.748 57.5415 172.866Z" fill="#91C1B8"/>
<path d="M202.615 168.13C202.615 168.13 201.457 156.047 199.384 152.647C197.312 149.247 194.203 147.304 194.203 147.304C194.203 147.304 197.86 151.432 198.653 155.743C199.384 160.055 199.872 168.494 199.872 168.494C199.872 168.494 201.701 169.648 202.615 168.13Z" fill="#91C1B8"/>
<path opacity="0.15" d="M202.615 168.13C202.615 168.13 201.457 156.047 199.384 152.647C197.312 149.247 194.203 147.304 194.203 147.304C194.203 147.304 197.86 151.432 198.653 155.743C199.384 160.055 199.872 168.494 199.872 168.494C199.872 168.494 201.701 169.648 202.615 168.13Z" fill="#91C1B8"/>
<path d="M203.407 171.045C203.407 171.045 202.798 171.166 202.005 170.195C201.884 169.83 201.152 157.686 204.261 152.768C207.309 147.85 214.257 145.846 214.257 145.846C214.257 145.846 207.491 149.307 205.358 155.622C203.651 160.54 204.566 170.377 204.566 170.377L203.407 171.045Z" fill="#91C1B8"/>
<path opacity="0.2" d="M203.407 171.045C203.407 171.045 202.798 171.166 202.005 170.195C201.884 169.83 201.152 157.686 204.261 152.768C207.309 147.85 214.257 145.846 214.257 145.846C214.257 145.846 207.491 149.307 205.358 155.622C203.651 160.54 204.566 170.377 204.566 170.377L203.407 171.045Z" fill="#91C1B8"/>
<path d="M205.48 170.255C205.48 170.255 208.345 156.411 217.915 152.829C217.915 152.829 212.307 153.315 208.893 157.626C205.419 161.937 203.468 168.191 203.407 171.045C203.407 171.045 204.992 172.38 205.48 170.255Z" fill="#91C1B8"/>
<path opacity="0.15" d="M205.48 170.255C205.48 170.255 208.345 156.411 217.915 152.829C217.915 152.829 212.307 153.315 208.893 157.626C205.419 161.937 203.468 168.191 203.407 171.045C203.407 171.045 204.992 172.38 205.48 170.255Z" fill="#91C1B8"/>
<path d="M119.893 75.1698C105.934 75.1698 94.5967 63.8761 94.5967 49.9715C94.5967 36.0669 105.934 24.7733 119.893 24.7733C133.852 24.7733 145.189 36.0669 145.189 49.9715C145.128 63.8761 133.791 75.1698 119.893 75.1698ZM119.893 25.3197C106.239 25.3197 95.1453 36.3705 95.1453 49.9715C95.1453 63.5725 106.239 74.6233 119.893 74.6233C133.547 74.6233 144.641 63.5725 144.641 49.9715C144.641 36.3705 133.547 25.3197 119.893 25.3197Z" fill="#A1D6CC"/>
<g opacity="0.15">
<path opacity="0.15" d="M119.893 88.1029C98.8026 88.1029 81.6133 70.9802 81.6133 49.9715C81.6133 28.9628 98.8026 11.8401 119.893 11.8401C140.984 11.8401 158.173 28.9628 158.173 49.9715C158.173 70.9802 140.984 88.1029 119.893 88.1029ZM119.893 12.3259C99.0465 12.3259 82.1009 29.2057 82.1009 49.9715C82.1009 70.7373 99.0465 87.6171 119.893 87.6171C140.74 87.6171 157.685 70.7373 157.685 49.9715C157.624 29.2057 140.679 12.3259 119.893 12.3259Z" fill="#D3E3CC"/>
</g>
<g opacity="0.3">
<path opacity="0.3" d="M119.893 83.4882C101.362 83.4882 86.2456 68.43 86.2456 49.9715C86.2456 31.513 101.362 16.4548 119.893 16.4548C138.423 16.4548 153.54 31.513 153.54 49.9715C153.54 68.4907 138.423 83.4882 119.893 83.4882ZM119.893 16.9405C101.606 16.9405 86.7332 31.7559 86.7332 49.9715C86.7332 68.1871 101.606 83.0025 119.893 83.0025C138.179 83.0025 153.052 68.1871 153.052 49.9715C152.991 31.7559 138.118 16.9405 119.893 16.9405Z" fill="#A1D6CC"/>
</g>
<g opacity="0.6">
<path opacity="0.6" d="M119.893 79.42C103.557 79.42 90.3301 66.1833 90.3301 49.9715C90.3301 33.6988 103.618 20.5229 119.893 20.5229C136.229 20.5229 149.457 33.7596 149.457 49.9715C149.457 66.2441 136.168 79.42 119.893 79.42ZM119.893 21.0086C103.862 21.0086 90.8177 34.0024 90.8177 49.9715C90.8177 65.9405 103.862 78.9343 119.893 78.9343C135.925 78.9343 148.969 65.9405 148.969 49.9715C148.908 34.0024 135.864 21.0086 119.893 21.0086Z" fill="#A1D6CC"/>
</g>
<path d="M140.252 48.7571C139.399 36.6741 131.17 29.57 119.832 29.57C110.932 29.57 103.374 35.2168 100.509 43.1103C100.509 43.1103 100.509 43.1103 100.509 43.171C100.448 43.3532 100.387 43.5353 100.326 43.7175C99.8387 45.0533 98.4977 48.1499 95.6937 50.3965C92.585 52.886 88.7448 52.0966 84.9656 51.6716C83.8075 51.5502 82.6493 51.4287 81.4912 51.4895C76.5538 51.6716 71.6165 54.9504 72.6527 60.4758C72.9575 62.0545 73.8108 63.5725 73.4451 65.0905C73.1403 66.5477 71.8603 67.6406 70.5193 68.3085C69.1783 68.9765 67.7153 69.4622 66.5572 70.373C64.9114 71.5874 63.8752 73.4696 63.7532 75.4733C63.5094 78.2057 65.0333 81.2416 66.9229 83.1239C70.824 86.9492 75.8833 89.3172 81.1254 90.2887C87.0381 91.3817 93.2555 91.1388 99.2291 90.5316C101.484 90.2887 103.74 89.9851 105.995 89.4994C116.175 87.3135 128.366 81.1202 133.059 74.9876C137.753 68.855 139.216 63.6939 139.947 59.14C140.618 55.5576 140.496 52.0359 140.252 48.7571Z" fill="#615B5B"/>
<path d="M97.8271 127.084C94.5355 133.703 86.3676 153.679 83.1369 167.462C80.0892 180.395 83.015 186.528 85.5751 188.592C89.5982 191.75 99.351 193.693 106.97 177.542C109.348 172.502 118.308 156.897 118.308 156.897C118.308 156.897 124.952 154.529 127.268 152.708C127.268 152.708 149.395 153.376 160.184 151.129C170.912 148.943 177.556 136.86 172.924 134.856C165.365 131.577 153.113 128.602 135.254 127.449L97.8271 127.084Z" fill="#615B5B"/>
<path d="M147.566 140.078C142.69 141.171 137.692 144.268 133.608 146.879C134.034 144.693 133.486 142.628 133.486 142.628C133.364 143.903 132.876 144.693 132.449 145.786C131.962 146.939 131.047 147.546 129.889 148.154C129.889 148.154 120.624 152.283 117.881 150.461C114.102 147.546 110.262 147.668 110.262 147.668C112.578 149.247 119.283 153.983 116.906 159.569L118.369 157.019C118.369 157.019 125.013 154.651 127.329 152.829C127.329 152.829 139.703 153.193 150.431 152.465L158.294 140.442C158.294 140.321 154.332 138.499 147.566 140.078Z" fill="#4A4747"/>
<path d="M128.731 160.115C132.449 159.083 135.558 158.051 136.777 155.804C137.996 153.558 140.861 151.19 145.555 153.376C150.858 155.804 156.832 154.165 160.976 154.043C165.182 153.861 168.108 157.626 169.571 160.783C172.07 166.187 167.56 163.516 163.659 162.848C159.757 162.18 150.492 163.273 146.835 164.001C140.8 165.216 130.438 172.259 119.344 180.335C119.344 180.335 113.371 167.098 112.578 164.791C112.639 164.73 125.013 161.148 128.731 160.115Z" fill="#F2CFBF"/>
<path d="M168.108 158.294C166.462 155.926 164.085 153.983 160.976 154.043C156.771 154.226 150.858 155.865 145.555 153.376C140.861 151.19 137.996 153.618 136.777 155.804C135.558 158.051 132.51 159.083 128.731 160.115C125.013 161.147 112.578 164.73 112.578 164.73C112.822 165.459 113.066 166.066 114.041 168.373C120.015 166.187 134.278 161.573 145.86 159.508C158.904 157.079 164.878 155.076 168.108 158.294Z" fill="#EFB69E"/>
<path d="M85.6359 188.592C87.4646 191.082 94.8402 193.389 101.972 191.082C109.896 188.592 118.125 181.731 121.965 178.392C121.965 178.392 121.66 173.048 114.651 165.337C111.176 166.673 106.726 168.555 102.46 170.741C97.2784 180.274 90.0857 177.784 88.1351 181.185C84.8435 186.892 85.6359 188.592 85.6359 188.592Z" fill="#615B5B"/>
<path d="M104.349 174.566C105.568 173.17 106.848 171.955 108.372 170.923C110.81 169.345 113.553 168.252 116.296 167.341C115.748 166.673 115.199 166.005 114.59 165.337C111.725 166.43 108.921 167.644 106.117 168.919C104.715 169.587 103.374 169.952 102.155 170.984C101.058 171.895 100.143 172.988 99.4119 174.263C99.1071 174.809 98.8633 175.356 98.8633 175.963C98.9242 176.388 99.1071 176.813 99.3509 177.177C99.7167 177.724 100.326 178.209 100.997 178.088C101.423 177.967 101.789 177.602 102.094 177.238C102.886 176.388 103.618 175.477 104.349 174.566Z" fill="#4A4747"/>
<path d="M139.155 145.118C129.158 151.25 122.27 153.618 118.674 152.708C116.236 152.1 112.03 150.097 109.531 154.59C108.129 157.14 106.056 159.204 103.74 160.965C102.033 162.24 99.9606 163.394 98.6196 165.155C97.3395 166.855 97.0347 168.859 97.0957 170.923C97.0957 172.198 97.2176 173.595 97.9491 174.627C98.3757 175.295 99.1072 175.781 99.8996 175.781C101.484 175.781 102.277 173.595 103.13 172.563C104.166 171.287 105.507 170.255 106.909 169.344C109.835 167.584 113.127 166.551 116.297 165.398C119.649 164.183 132.389 160.54 142.751 158.172L139.155 145.118Z" fill="#F1CEBE"/>
<path d="M168.23 133.46C181.884 136.192 180.177 145.239 174.935 149.489C170.12 153.315 163.171 154.529 155.186 155.926C147.262 157.322 142.385 158.294 142.385 158.294C142.385 158.294 138.85 152.282 139.216 145.178C143.787 141.96 150.005 139.046 158.416 140.321L168.23 133.46Z" fill="#615B5B"/>
<path d="M129.768 75.2305C136.716 76.0198 139.338 77.9628 141.593 85.0669C144.031 92.8389 151.224 117.491 151.224 117.551C153.662 118.948 173.899 129.938 175.667 128.845C176.398 128.359 177.313 126.113 177.678 125.323C178.166 124.17 178.593 122.955 178.897 121.68C179.202 120.587 179.446 119.373 180.299 118.584C180.726 118.219 181.275 117.916 181.823 117.976C183.103 118.037 183.652 119.252 184.018 120.344C184.505 121.923 184.627 123.502 184.81 125.141C185.054 127.752 185.298 131.881 184.688 133.217C184.2 134.37 181.031 138.074 178.41 138.803C175.789 139.532 158.904 132.913 148.298 129.756C142.568 128.056 141.654 126.72 140.374 123.805C138.728 119.98 130.377 99.0322 130.377 99.0322L129.768 75.2305Z" fill="#F1CEBE"/>
<path d="M134.339 118.948L136.777 127.631C135.07 133.399 130.62 137.528 118.186 138.378C108.677 139.046 99.2895 136.617 96.3027 130.363C97.7657 124.473 100.082 118.948 102.154 113.362L97.6437 101.157C98.8628 100.246 100.996 94.9032 101.911 88.4063C102.337 85.3097 102.093 80.2093 100.509 77.0519L111.481 75.1089L124.464 74.7446C127.573 74.9268 129.767 75.2304 129.767 75.2304C131.535 77.5377 133.851 82.0309 136.899 87.3741C138.667 90.4708 142.324 98.1213 134.765 105.347C134.887 106.379 134.217 117.308 134.339 118.948Z" fill="#E79C88"/>
<path opacity="0.8" d="M134.339 118.948L136.777 127.631C135.07 133.399 130.62 137.528 118.186 138.378C108.677 139.046 99.2895 136.617 96.3027 130.363C97.7657 124.473 100.082 118.948 102.154 113.362L97.6437 101.157C98.8628 100.246 100.996 94.9032 101.911 88.4063C102.337 85.3097 102.093 80.2093 100.509 77.0519L111.481 75.1089L124.464 74.7446C127.573 74.9268 129.767 75.2304 129.767 75.2304C131.535 77.5377 133.851 82.0309 136.899 87.3741C138.667 90.4708 142.324 98.1213 134.765 105.347C134.887 106.379 134.217 117.308 134.339 118.948Z" fill="#E79C88"/>
<path opacity="0.05" d="M109.652 100.429C109.652 100.429 110.506 103.708 115.26 105.772C120.076 107.836 124.464 106.197 126.903 103.647C126.903 103.647 123.306 110.872 114.651 107.594C108.921 105.468 109.652 100.429 109.652 100.429Z" fill="black"/>
<path d="M99.8385 100.489C99.8385 100.489 102.521 95.2069 103.74 88.4064C105.02 81.0594 102.764 76.6877 102.764 76.6877C94.7792 77.477 91.7315 79.7843 86.6112 95.3283C83.0149 106.197 78.1385 119.373 76.4317 128.663C75.6393 133.095 79.7843 153.74 82.1006 161.33C82.7101 163.333 85.4531 166.976 89.0494 168.373C91.4876 168.859 96.9126 164.183 97.7051 162.544C98.6803 159.569 100.57 150.886 99.4728 148.518C98.4975 146.332 96.486 146.211 94.5354 148.093C93.3772 149.247 91.9143 150.825 90.4514 154.043C89.659 146.15 88.9885 130.059 88.9885 130.059L99.8385 100.489Z" fill="#F1CEBE"/>
<path d="M132.449 40.3172C134.644 41.5923 137.143 45.114 136.899 56.4684C136.655 66.1227 133.547 68.4907 131.962 69.1586C130.377 69.8265 127.329 69.4015 124.403 68.9157V74.684C124.403 74.684 128.487 79.4201 128.243 82.031C128 84.7026 122.331 85.3098 118.552 82.6989C114.711 80.088 111.542 75.0483 111.542 75.0483L111.603 61.7509C111.603 61.7509 109.896 63.451 106.909 60.8401C104.471 58.715 103.679 55.1326 105.568 53.2503C107.458 51.3073 110.993 51.8538 112.334 54.5861L115.077 53.8575C115.077 51.368 116.479 49 118.795 47.9678C119.344 47.7249 119.893 47.5427 120.441 47.3606C126.842 45.539 130.072 45.4176 132.449 40.3172Z" fill="#F7C8B5"/>
<path d="M115.016 52.6431L112.273 53.3717V57.8649C113.797 57.8649 115.016 56.6505 115.016 55.1325V52.6431Z" fill="#615B5B"/>
<path d="M124.403 68.9764C121.295 68.5514 114.894 66.7298 113.919 64.2404C113.919 64.2404 114.224 65.819 116.174 67.4585C118.064 69.0979 124.464 70.9194 124.464 70.9194V68.9764H124.403Z" fill="#C98C6C"/>
<path d="M125.257 52.8253C125.074 53.7968 124.343 54.5254 123.367 54.6468C122.392 54.7683 121.539 54.1611 121.173 53.2503C121.782 53.6753 122.514 53.9182 123.306 53.7968C124.038 53.736 124.769 53.3717 125.257 52.8253Z" fill="#263238"/>
<path d="M135.985 52.6431C135.68 53.5539 134.827 54.2218 133.851 54.1611C132.876 54.1003 132.084 53.3717 131.901 52.4609C132.449 52.9467 133.12 53.311 133.912 53.311C134.705 53.3717 135.436 53.1288 135.985 52.6431Z" fill="#263238"/>
<path d="M122.819 48.9392L120.076 50.4572C119.649 49.6679 119.954 48.6964 120.746 48.2713C121.478 47.8463 122.392 48.1499 122.819 48.9392Z" fill="#263238"/>
<path d="M125.257 61.8723L128.182 62.9653C127.878 63.8153 127.024 64.2403 126.171 63.9367C125.378 63.6332 124.952 62.7224 125.257 61.8723Z" fill="#EFB49C"/>
<path d="M136.167 49.2428L133.181 48.2106C133.424 47.3605 134.339 46.9355 135.131 47.2391C135.985 47.482 136.411 48.3928 136.167 49.2428Z" fill="#263238"/>
<path d="M128.183 51.368L128.609 59.14L132.632 57.7435L128.183 51.368Z" fill="#EFB49C"/>
</g>
<defs>
<clipPath id="clip0">
<rect width="254" height="245" fill="white"/>
</clipPath>
</defs>
</svg>
