<svg width="34" height="58" viewBox="0 0 34 58" fill="none" xmlns="http://www.w3.org/2000/svg">
<g clip-path="url(#clip0)">
<path d="M34.0002 10.5954V22.9601C34.0031 23.4107 33.8337 23.846 33.5256 24.1793L27.5057 30.5854C26.4939 31.6601 24.7751 30.8926 24.7751 29.3676V4.14444C24.7751 2.61517 26.501 1.84913 27.51 2.93084L33.5313 9.38464C33.8345 9.71716 34.0016 10.1486 34.0002 10.5954Z" fill="url(#paint0_linear)"/>
<path d="M31.1199 9.88413H3.11692C2.011 9.88413 1.45661 8.45167 2.23902 7.61268L8.97859 0.390034C9.08945 0.268275 9.22494 0.170678 9.37638 0.103509C9.52781 0.0363404 9.69183 0.00108298 9.85792 0L24.3789 0C24.5447 0.00144991 24.7084 0.0368787 24.8595 0.10403C25.0107 0.171182 25.1459 0.268584 25.2568 0.390034L33.5725 9.42255C33.607 9.4627 33.6294 9.51158 33.637 9.56363C33.6447 9.61567 33.6373 9.66879 33.6157 9.71691C33.5942 9.76503 33.5593 9.80622 33.5152 9.83578C33.471 9.86535 33.4193 9.8821 33.3659 9.88413H31.1199Z" fill="url(#paint1_linear)"/>
<path d="M23.5764 33.484L2.93298 33.5514C1.31543 33.5556 4.1326e-06 32.1526 4.1326e-06 30.4185V26.8086C4.1326e-06 26.4241 4.1326e-06 26.1169 4.1326e-06 25.8573C-0.000558027 25.571 0.0562382 25.2874 0.167142 25.0228C0.278046 24.7581 0.44088 24.5176 0.646325 24.3149C0.85177 24.1123 1.09579 23.9515 1.36442 23.8418C1.63306 23.7321 1.92103 23.6757 2.21185 23.6757H33.1634C33.2346 23.6753 33.3042 23.6955 33.3639 23.7336C33.4235 23.7717 33.4706 23.8262 33.4992 23.8903C33.5278 23.9544 33.5368 24.0253 33.525 24.0944C33.5132 24.1634 33.4811 24.2276 33.4328 24.279L28.9606 29.0323L25.6258 32.5763C25.3664 32.8587 25.0504 33.0852 24.6976 33.2414C24.3449 33.3976 23.9632 33.4803 23.5764 33.484Z" fill="url(#paint2_linear)"/>
<path d="M10.0531 0.385624V55.6189C10.0531 56.2515 9.7978 56.8581 9.34345 57.3054C8.88909 57.7527 8.27285 58.004 7.63029 58.004H2.43131C1.78876 58.004 1.17251 57.7527 0.718158 57.3054C0.2638 56.8581 0.00854492 56.2515 0.00854492 55.6189V10.497C0.0100676 9.8733 0.25973 9.27497 0.704022 8.83028L9.18086 0.215861C9.73525 -0.123664 10.0531 -0.00020048 10.0531 0.385624Z" fill="#EDEDED"/>
<path d="M34 10.5983V22.9661C34.0029 23.4169 33.8335 23.8522 33.5254 24.1856L27.5055 30.5934C26.4936 31.6683 24.7749 30.9007 24.7749 29.3752V4.14561C24.7749 2.61595 26.5008 1.84971 27.5098 2.93171L33.5311 9.38717C33.8343 9.71977 34.0014 10.1513 34 10.5983Z" fill="url(#paint3_linear)"/>
<path d="M31.1196 9.88668H3.11668C2.01075 9.88668 1.45637 8.45385 2.23878 7.61464L8.97836 0.390134C9.08922 0.268344 9.22471 0.170722 9.37614 0.103536C9.52757 0.0363498 9.69159 0.00108326 9.85768 0L24.3786 0C24.5445 0.00145029 24.7081 0.0368882 24.8593 0.104057C25.0104 0.171226 25.1457 0.268653 25.2565 0.390134L33.5723 9.42497C33.6068 9.46514 33.6292 9.51403 33.6368 9.56609C33.6444 9.61815 33.6371 9.67128 33.6155 9.71941C33.594 9.76754 33.5591 9.80874 33.515 9.83832C33.4708 9.86789 33.4191 9.88465 33.3657 9.88668H31.1196Z" fill="url(#paint4_linear)"/>
<path d="M23.5764 33.4926L2.93298 33.5599C1.31543 33.5642 4.13261e-06 32.1608 4.13261e-06 30.4262V26.8154C4.13261e-06 26.4309 4.13261e-06 26.1235 4.13261e-06 25.8639C-0.000558027 25.5775 0.0562383 25.2939 0.167142 25.0291C0.278046 24.7644 0.440881 24.5238 0.646326 24.3211C0.851771 24.1184 1.09579 23.9576 1.36443 23.8479C1.63306 23.7382 1.92103 23.6817 2.21185 23.6817H33.1635C33.2346 23.6813 33.3049 23.6816 33.6209 23.6817C33.6841 23.6817 33.7818 23.6755 33.8104 23.7396C33.8391 23.8037 33.7472 23.8885 33.6841 23.9517C33.6841 24.0149 33.4812 24.2338 33.4328 24.2851L28.9607 29.0397L25.6258 32.5846C25.3664 32.8671 25.0504 33.0936 24.6977 33.2499C24.3449 33.4062 23.9632 33.4888 23.5764 33.4926Z" fill="url(#paint5_linear)"/>
<path d="M10.0521 0.384315V55.6318C10.0521 56.2646 9.79684 56.8714 9.34248 57.3188C8.88813 57.7662 8.27188 58.0175 7.62932 58.0175H2.43034C1.78778 58.0175 1.17154 57.7662 0.717182 57.3188C0.262824 56.8714 0.00756836 56.2646 0.00756836 55.6318V10.4983C0.00909104 9.87444 0.258754 9.27595 0.703047 8.83114L9.1799 0.214509C9.73429 -0.125105 10.0521 -0.00160893 10.0521 0.384315Z" fill="#E79C88"/>
</g>
<defs>
<linearGradient id="paint0_linear" x1="29.387" y1="28.0796" x2="29.387" y2="10.6964" gradientUnits="userSpaceOnUse">
<stop offset="0.401042" stop-color="#EDEDED"/>
<stop offset="1" stop-color="#9F9D9D"/>
</linearGradient>
<linearGradient id="paint1_linear" x1="1.87276" y1="4.94277" x2="33.6467" y2="4.94277" gradientUnits="userSpaceOnUse">
<stop offset="0.14" stop-color="#9F9D9D"/>
<stop offset="0.53" stop-color="#EDEDED"/>
</linearGradient>
<linearGradient id="paint2_linear" x1="4.1326e-06" y1="28.6128" x2="16.1356" y2="28.6128" gradientUnits="userSpaceOnUse">
<stop offset="0.348958" stop-color="#9F9D9D"/>
<stop offset="0.74" stop-color="#EDEDED"/>
</linearGradient>
<linearGradient id="paint3_linear" x1="29.3867" y1="28.087" x2="29.4498" y2="6.76207" gradientUnits="userSpaceOnUse">
<stop offset="0.34375" stop-color="#E2856B"/>
</linearGradient>
<linearGradient id="paint4_linear" x1="1.87251" y1="4.94404" x2="33.6465" y2="4.94404" gradientUnits="userSpaceOnUse">
<stop offset="0.25" stop-color="#E2856B"/>
<stop offset="0.6875" stop-color="#E79C88"/>
</linearGradient>
<linearGradient id="paint5_linear" x1="4.13162e-06" y1="28.6201" x2="27.3643" y2="28.5651" gradientUnits="userSpaceOnUse">
<stop offset="0.25" stop-color="#E2856B"/>
<stop offset="0.765625" stop-color="#E79C88"/>
</linearGradient>
<clipPath id="clip0">
<rect width="34" height="58" fill="white"/>
</clipPath>
</defs>
</svg>
