<svg width="303" height="271" viewBox="0 0 303 271" fill="none" xmlns="http://www.w3.org/2000/svg">
<rect x="164.104" width="116.556" height="170.949" rx="10" fill="#F2F6FB"/>
<path d="M180.292 38.4635H247.931C248.289 38.4635 248.579 38.7821 248.579 39.1751V42.8924C248.579 43.2853 248.289 43.6039 247.931 43.6039H180.292C179.935 43.6039 179.645 43.2853 179.645 42.8924V39.1751C179.645 38.7821 179.935 38.4635 180.292 38.4635ZM180.292 46.8167H259.615C259.973 46.8167 260.263 47.1352 260.263 47.5282V51.2455C260.263 51.6385 259.973 51.9571 259.615 51.9571H180.292C179.935 51.9571 179.645 51.6385 179.645 51.2455V47.5282C179.645 47.1352 179.935 46.8167 180.292 46.8167Z" fill="#E1E5F0"/>
<path d="M180.292 102.569H247.931C248.289 102.569 248.579 102.888 248.579 103.281V106.998C248.579 107.391 248.289 107.71 247.931 107.71H180.292C179.935 107.71 179.645 107.391 179.645 106.998V103.281C179.645 102.888 179.935 102.569 180.292 102.569ZM180.292 110.923H259.615C259.973 110.923 260.263 111.241 260.263 111.634V115.351C260.263 115.744 259.973 116.063 259.615 116.063H180.292C179.935 116.063 179.645 115.744 179.645 115.351V111.634C179.645 111.241 179.935 110.923 180.292 110.923Z" fill="#E1E5F0"/>
<path d="M180.292 70.1276H247.931C248.289 70.1276 248.579 70.4461 248.579 70.8391V74.5564C248.579 74.9494 248.289 75.268 247.931 75.268H180.292C179.935 75.268 179.645 74.9494 179.645 74.5564V70.8391C179.645 70.4461 179.935 70.1276 180.292 70.1276ZM180.292 78.4807H259.615C259.973 78.4807 260.263 78.7993 260.263 79.1923V82.9096C260.263 83.3026 259.973 83.6211 259.615 83.6211H180.292C179.935 83.6211 179.645 83.3026 179.645 82.9096V79.1923C179.645 78.7993 179.935 78.4807 180.292 78.4807Z" fill="#E1E5F0"/>
<path d="M231.575 30.1103H180.293C179.935 30.1103 179.646 30.4289 179.646 30.8218V34.5392C179.646 34.9321 179.935 35.2507 180.293 35.2507H231.575C231.933 35.2507 232.222 34.9321 232.222 34.5392V30.8218C232.222 30.4289 231.933 30.1103 231.575 30.1103Z" fill="#E1E5F0"/>
<path d="M231.575 94.2161H180.293C179.935 94.2161 179.646 94.5347 179.646 94.9277V98.645C179.646 99.038 179.935 99.3565 180.293 99.3565H231.575C231.933 99.3565 232.222 99.038 232.222 98.645V94.9277C232.222 94.5347 231.933 94.2161 231.575 94.2161Z" fill="#E1E5F0"/>
<path d="M231.574 61.7744H180.292C179.935 61.7744 179.645 62.093 179.645 62.486V66.2033C179.645 66.5963 179.935 66.9148 180.292 66.9148H231.574C231.932 66.9148 232.222 66.5963 232.222 66.2033V62.486C232.222 62.093 231.932 61.7744 231.574 61.7744Z" fill="#E1E5F0"/>
<path d="M168.397 111.058C169.467 110.51 170.614 110.547 170.957 111.167L187.311 139.218C187.655 139.838 187.12 140.786 186.051 141.37C184.981 141.917 183.834 141.88 183.49 141.26L167.136 113.21C166.754 112.553 167.327 111.605 168.397 111.058Z" fill="#474961"/>
<path d="M243.109 136.887C251.048 136.773 259.211 136.745 267.598 136.802C280.31 136.89 278.43 137.993 284.969 136.89C288.95 136.219 291.208 134.916 292.365 135.097C293.109 135.214 293.398 135.944 293.398 137.848C293.398 141.094 291.948 147.861 289.048 158.148L271.511 196.219L264.979 213.83C262.935 219.341 257.712 223.029 251.835 223.111L210.147 223.692L234.987 140.105C235.568 138.151 237.376 136.82 239.415 136.846L242.609 136.887C242.775 136.889 242.942 136.889 243.109 136.887Z" fill="#97B1F4"/>
<path d="M272.754 229.062C272.647 230.24 271.657 231.163 270.451 231.163H266.365L276.686 269.683C276.681 269.827 275.886 270.147 274.817 270.433C274.324 270.565 273.825 270.675 273.485 270.719C273.144 270.763 272.924 270.762 272.906 270.696L262.313 231.163H20.8651L10.2723 270.696C10.1956 270.818 9.34716 270.697 8.27885 270.411C7.78578 270.279 7.29865 270.124 6.98179 269.992C6.66494 269.86 6.47432 269.749 6.49211 269.683L16.8135 231.163H13.9369C12.6597 231.163 11.6244 230.128 11.6244 228.85C11.6244 227.573 12.6597 226.538 13.9369 226.538H268.731L298.5 140.082C298.916 138.875 300.232 138.233 301.44 138.649C302.647 139.064 303.289 140.38 302.873 141.588L272.754 229.062Z" fill="#D8DEED"/>
<path d="M26.9204 138.891L26.7394 139.004C26.0643 139.468 25.8794 140.381 26.313 141.075L56.8478 188.866C57.3116 189.542 58.2242 189.726 58.9181 189.293L59.0992 189.18C59.7743 188.716 59.9591 187.803 59.5255 187.109L29.0096 139.348C28.5571 138.624 27.6445 138.439 26.9204 138.891ZM105.266 225.825L47.9862 225.825C47.102 225.825 46.3852 226.542 46.3852 227.426C46.3852 228.31 47.102 229.027 47.9862 229.027L105.266 229.027C106.15 229.027 106.867 228.31 106.867 227.426C106.867 226.542 106.15 225.825 105.266 225.825Z" fill="#E68577"/>
<path d="M28.7452 138.942C28.8546 139.038 28.9526 139.152 29.0352 139.284L59.5511 187.046C59.6999 187.284 59.7759 187.548 59.7842 187.811L77.4172 177.272L64.552 153.595L57.1947 150.683C55.1847 150.219 53.2199 149.559 51.3193 148.733C46.7601 146.673 45.6403 144.814 39.6896 141.065C38.0907 140.05 36.4692 139.133 34.727 138.292C33.7088 138.006 31.7667 137.583 30.0922 138.126C29.8131 138.216 29.5717 138.367 29.3417 138.469C29.1163 138.61 28.9185 138.77 28.7452 138.942ZM47.8039 225.775C47.872 225.766 47.9414 225.761 48.0118 225.761L105.292 225.761C105.37 225.761 105.448 225.767 105.523 225.778L105.523 201.988L81.1846 201.988C76.5891 205.143 73.8051 207.206 72.8326 208.179C71.3739 209.637 69.7729 210.954 68.0652 212.128C63.9026 214.903 61.7324 214.867 55.3996 217.927C53.6919 218.745 52.0553 219.635 50.4188 220.666C48.7822 221.698 48.2485 222.801 47.8216 224.509C47.7505 224.793 47.7505 225.078 47.7149 225.327C47.7149 225.492 47.7468 225.64 47.8039 225.775Z" fill="#615B5B"/>
<path opacity="0.176986" d="M28.744 138.941C28.8539 139.037 28.9523 139.151 29.0353 139.284L59.5512 187.046C59.6997 187.283 59.7757 187.547 59.7842 187.809L77.4148 177.272L64.5497 153.595L57.1924 150.683C55.1823 150.219 53.2176 149.559 51.317 148.732C46.7578 146.673 45.6379 144.814 39.6873 141.065C38.0884 140.05 36.4669 139.133 34.7247 138.292C33.7065 138.006 31.7643 137.583 30.0899 138.126C29.8108 138.216 29.5694 138.367 29.3394 138.469C29.1144 138.609 28.9171 138.77 28.744 138.941Z" fill="#444444"/>
<path d="M68.0043 165.623L62.9121 149.999C62.0563 147.373 63.2084 144.512 65.6449 143.213L76.5262 137.408C81.9192 128.99 89.3714 123.476 99.77 127.697C100.091 127.827 100.422 127.967 100.765 128.115L100.463 127.941C117.908 118.175 128.682 112.731 132.784 111.609C136.887 110.486 141.052 112.114 145.28 116.492L189.493 178.279C216.404 179.886 229.895 187.809 229.966 202.049C230.035 216.288 222.408 224.975 207.083 228.109C191.97 229.373 179.55 228.936 169.825 226.801C158.806 227.394 149.371 225.94 141.521 222.439C128.905 216.812 117.109 204.438 106.132 185.317L105.584 202.304H68.4293C66.4644 202.304 64.8715 200.712 64.8715 198.747C64.8715 198.668 64.8742 198.589 64.8794 198.51C65.759 185.324 66.8007 174.361 68.0043 165.623Z" fill="#D3E3CC"/>
<path opacity="0.176986" d="M169.902 226.797C158.85 227.401 149.39 225.948 141.521 222.439C128.905 216.812 117.109 204.438 106.132 185.317L105.584 202.304H68.4293C66.4644 202.304 64.8716 200.712 64.8716 198.747C64.8716 198.668 64.8742 198.589 64.8795 198.51C66.826 169.33 69.5659 151.04 73.0991 143.64C78.625 132.066 86.9629 122.499 99.77 127.697C100.223 127.881 100.698 128.083 101.193 128.303L125.069 142.044L127.745 153.902C134.033 188.244 142.058 209.764 151.819 218.465C156.141 222.318 162.169 225.095 169.902 226.797Z" fill="#444444"/>
<path d="M229.389 134.14C232.515 134.324 236.165 135.217 239.458 137.777C243.337 140.773 244.902 144.191 247.733 151.085C250.083 156.81 252.105 161.877 249.785 164.85C248.087 167.026 245.112 167.026 243.113 166.89C240.151 166.309 237.395 166.092 234.712 166.003L228.327 179.897C227.679 181.718 223.165 193.145 221.836 194.555C218.04 198.615 208.397 194.582 192.908 182.456C189 178.96 187.909 174.775 189.638 169.902C190.631 166.787 191.558 163.897 192.42 161.231C190.44 160.963 187.568 160.244 186.372 158.08C184.55 154.778 187.573 150.127 190.979 144.961C195.046 138.726 197.237 135.67 201.593 133.44C204.275 132.076 206.974 131.595 209.434 131.585C214.009 130.607 221.114 130.377 229.389 134.14Z" fill="#E68577"/>
<path opacity="0.176986" d="M192.296 161.289C190.331 160.994 187.649 160.246 186.503 158.173C184.681 154.871 187.815 150.286 191.11 145.055C195.121 138.686 197.368 135.534 201.724 133.304C204.242 132.022 206.776 131.551 209.113 131.525C207.275 131.937 205.866 132.465 204.983 132.884C202.749 133.932 202.126 134.824 200.492 137.739C199.573 139.378 196.841 147.227 192.296 161.289Z" fill="#444444"/>
<path d="M222.955 125.456C223.547 127.314 224.5 129.738 225.815 132.729C224.174 132.172 222.4 131.748 220.495 131.455C217.638 131.015 216.355 130.975 214.931 130.971L214.666 128.781C212.472 129.537 212.598 129.468 212.402 129.554C210.85 129.935 209.278 130.031 207.716 129.914C204.67 129.576 201.337 123.843 200.05 115.76C199.944 115.078 199.906 114.434 199.868 113.791L199.816 107.304C199.788 105.807 200.147 104.4 200.853 103.155C201.128 102.671 201.474 102.19 201.82 101.709C205.781 96.8223 212.616 97.608 213.887 97.8171C214.029 97.8246 214.17 97.8675 214.347 97.8768C215.647 98.23 216.922 98.3681 218.237 98.437C218.841 98.4686 219.28 98.9192 219.249 99.5231L219.083 108.813C219.086 109.419 222.02 108.85 222.663 108.813C224.376 108.76 226.653 110.163 227.272 111.941C227.744 113.818 227.431 116.403 226.188 117.692C225.737 118.143 224.669 120.726 222.985 125.441C222.98 125.444 222.969 125.449 222.955 125.456ZM192.359 143.355C193.426 144.888 194.468 146.469 195.167 147.744C195.925 148.492 196.46 149.018 196.533 149.098C213.405 167.125 221.852 176.143 221.874 176.153C221.953 176.15 222.127 175.059 222.549 170.963C222.58 170.138 222.675 168.134 222.829 165.679C229.686 166.247 235.764 165.45 243.113 166.89C244.186 166.963 245.573 166.967 246.882 166.647C246.381 170.906 245.59 176.62 244.237 183.306C240.167 203.381 236.549 205.47 234.952 206.083C233.59 206.606 229.406 207.781 221.874 202.48C218.853 199.733 215.806 196.779 212.766 193.635C204.2 184.789 196.925 175.741 190.736 166.834C189.637 169.723 189.023 171.814 188.894 173.106C188.769 174.362 189.092 176.007 189.732 178.28C189.749 178.341 189.67 178.341 189.494 178.28L184.498 171.375C185.043 170.488 186.287 166.835 187.886 161.718C186.101 157.866 187.708 161.184 185.751 157.448L183.261 151.756L182.016 149.098C180.593 144.996 181.304 145.886 179.169 143.355L178.814 142.486L178.458 141.616C178.102 140.905 177.924 140.371 177.568 139.66L176.679 137.525C176.323 136.102 174.9 132.544 174.011 130.587L172.41 126.318C171.876 125.073 172.167 122.565 172.765 122.76C172.648 122.122 177.924 131.266 178.814 131.833L179.703 132.9C181.006 133.757 180.52 133.493 182.299 134.027H182.89C182.324 131.575 182.526 129.253 184.875 128.486C184.875 128.486 186.825 132.184 189.184 136.618L191.291 142.042L192.359 143.355Z" fill="#F1CEBE"/>
<path d="M234.466 110.114C234.597 110.795 234.7 111.445 234.835 112.096C235.329 112.193 235.856 112.328 236.447 112.608C236.864 112.808 239.72 114.062 240.908 116.547C242.609 120.128 240.779 125.803 235.29 129.256C234.996 129.419 234.742 129.513 234.742 129.513C233.798 129.855 232.906 129.879 231.978 129.902C231.801 129.893 231.586 129.917 231.586 129.917C229.645 129.792 227.577 129.657 225.383 129.513C224.159 129.315 223.377 128.269 223.038 126.372C222.946 125.855 222.908 125.221 222.893 124.508C222.799 123.191 222.63 120.786 222.511 118.86C223.694 118.709 224.792 118.161 225.62 117.313C226.934 116.029 227.356 114.091 226.772 112.315C226.153 110.537 224.374 109.125 222.662 109.178C222.018 109.216 221.401 109.433 220.814 109.758C220.074 110.289 219.435 110.933 219.035 111.767L217.287 115.879L217.318 115.906C217.294 115.909 217.271 115.911 217.25 115.913C214.062 116.245 212.662 104.201 205.859 102.134C204.281 101.66 202.569 101.824 201.595 102.058C204.523 96.4025 213.858 97.6032 214.036 97.6125C216.156 97.9374 218.128 98.4664 219.265 98.526C224.871 98.9623 227.076 98.3653 229.844 99.9354C230.882 100.524 231.839 101.287 232.535 102.285C234.403 104.896 234.6 107.997 234.466 110.114ZM204.416 112.4C204.065 112.31 203.983 111.843 204.244 111.607C204.614 111.342 205.198 111.087 205.907 111.16C207.431 111.311 208.942 112.388 207.253 112.656C206.245 112.852 205.118 112.615 204.416 112.4ZM198.384 111.942C198.034 111.816 197.987 111.351 198.318 111.154C198.722 110.926 199.268 110.705 200.044 110.853C201.527 111.109 202.96 112.324 201.206 112.481C200.133 112.568 199.083 112.192 198.384 111.942Z" fill="#615B5B"/>
<path d="M201.28 113.851C201.263 113.655 201.409 113.483 201.605 113.467C201.801 113.451 201.972 113.597 201.989 113.793L202.163 115.904L202.164 115.948L202.002 119.715C202.013 119.758 202.045 119.788 202.092 119.795C202.214 119.789 202.339 119.792 202.476 119.803C202.584 119.811 202.665 119.82 202.853 119.843C203.4 119.911 203.639 119.911 203.947 119.813C204.134 119.753 204.334 119.856 204.394 120.043C204.454 120.23 204.351 120.43 204.164 120.49C203.728 120.63 203.41 120.629 202.766 120.55C202.589 120.528 202.514 120.519 202.421 120.512C202.304 120.503 202.203 120.501 202.107 120.507L202.068 120.507C201.653 120.485 201.336 120.172 201.291 119.776L201.289 119.721L201.452 115.94L201.28 113.851Z" fill="#615B5B"/>
<path d="M204.775 123.022C205.024 122.99 205.667 122.859 205.816 122.471C205.817 122.399 205.89 122.294 205.856 122.222C205.752 122.042 204.65 122.023 204.65 122.023C203.191 122.033 202.836 121.956 202.726 122.132C202.689 122.238 202.686 122.38 202.93 122.705C203.204 123.315 204.382 123.086 204.775 123.022Z" fill="#615B5B"/>
<path d="M214.545 128.775L217.486 127.718L214.915 130.857L214.545 128.775Z" fill="#615B5B"/>
<path d="M200.743 116.554C200.28 117.242 199.157 115.545 199.467 114.385C199.565 113.892 199.892 113.766 200.142 113.744C200.533 113.764 200.945 114.071 200.956 114.535C201.031 115.144 201.085 116.145 200.743 116.554ZM206.52 116.734C206.02 117.42 204.934 115.725 205.244 114.565C205.341 114.072 205.668 113.946 205.919 113.924C206.309 113.944 206.721 114.251 206.732 114.714C206.807 115.324 206.897 116.326 206.52 116.734Z" fill="#615B5B"/>
<path opacity="0.2" d="M187.757 162.499C186.15 167.644 185.073 170.662 184.526 171.553L189.522 178.457C189.698 178.519 189.778 178.519 189.76 178.457C189.12 176.184 188.797 174.539 188.922 173.284C189.052 171.977 189.679 169.854 190.801 166.915L187.757 162.499Z" fill="#8C2A00"/>
<path d="M222.344 157.172C222.321 157.205 222.276 157.272 222.214 157.37C222.108 157.537 221.993 157.726 221.873 157.935C221.412 158.739 221.018 159.587 220.764 160.411C220.087 162.606 220.526 164.022 222.517 164.538C222.802 164.612 222.974 164.903 222.9 165.189C222.826 165.474 222.534 165.645 222.249 165.571C219.551 164.872 218.91 162.802 219.744 160.096C220.025 159.187 220.45 158.271 220.947 157.404C221.075 157.18 221.199 156.976 221.314 156.796C221.384 156.687 221.436 156.609 221.466 156.565C221.633 156.323 221.966 156.262 222.208 156.429C222.451 156.597 222.512 156.929 222.344 157.172Z" fill="#615B5B"/>
</svg>
